<?xml version="1.0" encoding="UTF-8"?>
<svg width="58px" height="58px" viewBox="0 0 58 58" version="1.1" xmlns="http://www.w3.org/2000/svg" xmlns:xlink="http://www.w3.org/1999/xlink">
    <title>FE81BCE2-0941-4448-A4B6-2965B75543AA</title>
    <defs>
        <path d="M38.1975,0.666666667 C38.8258333,0.666666667 39.3333333,1.17657537 39.3333333,1.80489888 L39.3333333,38.194497 C39.3333333,38.552158 39.169,38.8832362 38.8886667,39.0983162 C38.6856667,39.2529804 38.444,39.3327292 38.1975,39.3327292 C38.0984167,39.3327292 37.9969167,39.3182294 37.8978333,39.2916465 L32.1316667,37.7208377 L26.3655,39.2916465 C26.16975,39.3472289 25.9643333,39.3472289 25.7661667,39.2916465 L20,37.7208377 L14.23625,39.2916465 C14.0405,39.3472289 13.8350833,39.3472289 13.6393333,39.2916465 L7.81758333,37.7208377 L2.107,39.2916465 C1.76383333,39.3834784 1.3965,39.3133961 1.11616667,39.0983162 C0.833416667,38.8832362 0.666666667,38.552158 0.666666667,38.194497 L0.666666667,1.80489888 C0.666666667,1.17657537 1.17658333,0.666666667 1.80491667,0.666666667 L38.1975,0.666666667 Z M37.05925,2.94071447 L2.94316667,2.94071447 L2.94316667,36.7034369 L7.51308333,35.4443733 C7.61216667,35.4177903 7.71366667,35.4032906 7.81516667,35.4032906 C7.91666667,35.4032906 8.01575,35.4177903 8.11241667,35.4443733 L13.9341667,37.0151821 L19.7003333,35.4443733 C19.8985,35.3887908 20.1039167,35.3887908 20.3020833,35.4443733 L26.0658333,37.0151821 L31.832,35.4443733 C32.0301667,35.3887908 32.2331667,35.3887908 32.43375,35.4443733 L37.05925,36.7082702 L37.05925,2.94071447 Z M30.9615732,29.7379583 C31.5808039,29.7379583 32.0833333,30.247875 32.0833333,30.8737917 C32.0833333,31.5045417 31.5808039,32.0120417 30.9615732,32.0120417 L9.03604514,32.0120417 C8.41919615,32.0120417 7.91666667,31.5045417 7.91666667,30.8737917 C7.91666667,30.247875 8.41919615,29.7379583 9.03604514,29.7379583 L30.9615732,29.7379583 Z M30.9615732,24.904625 C31.5808039,24.904625 32.0833333,25.4145417 32.0833333,26.0404583 C32.0833333,26.6687917 31.5808039,27.1787083 30.9615732,27.1787083 L9.03604514,27.1787083 C8.41919615,27.1787083 7.91666667,26.6687917 7.91666667,26.0404583 C7.91666667,25.4145417 8.41919615,24.904625 9.03604514,24.904625 L30.9615732,24.904625 Z M30.9615732,20.0712917 C31.5808039,20.0712917 32.0833333,20.5787917 32.0833333,21.207125 C32.0833333,21.8354583 31.5808039,22.345375 30.9615732,22.345375 L9.03604514,22.345375 C8.41919615,22.345375 7.91666667,21.8354583 7.91666667,21.207125 C7.91666667,20.5787917 8.41919615,20.0712917 9.03604514,20.0712917 L30.9615732,20.0712917 Z M30.9805916,7.91666667 C31.5893238,7.91666667 32.0833333,8.43124208 32.0833333,9.0707858 L32.0833333,16.4316646 C32.0833333,17.0687579 31.5893238,17.5833333 30.9805916,17.5833333 L9.01706711,17.5833333 C8.40833495,17.5833333 7.91666667,17.0687579 7.91666667,16.4316646 L7.91666667,9.0707858 C7.91666667,8.43124208 8.40833495,7.91666667 9.01706711,7.91666667 L30.9805916,7.91666667 Z M29.8801912,10.2249049 L10.1198088,10.2249049 L10.1198088,15.2799958 L29.8801912,15.2799958 L29.8801912,10.2249049 Z" id="path-1"></path>
    </defs>
    <g id="Desktop-" stroke="none" stroke-width="1" fill="none" fill-rule="evenodd">
        <g id="D_0.Vetrina-top_-Mis-Apuesta-non-loggato" transform="translate(-1148.000000, -304.000000)">
            <g id="Component-/-D-/-Ticket-/-Empty-/-Es" transform="translate(1021.000000, 233.000000)">
                <g id="content" transform="translate(58.000000, 71.000000)">
                    <g id="Icon" transform="translate(69.000000, 0.000000)">
                        <g id="Icon-/-Informative-/-Ticket" transform="translate(9.000000, 9.000000)">
                            <mask id="mask-2" fill="white">
                                <use xlink:href="#path-1"></use>
                            </mask>
                            <use id="Mask" fill="#222222" xlink:href="#path-1"></use>
                            <g id="Colors-/-Neutral-/-Black" mask="url(#mask-2)" fill="#222222">
                                <g transform="translate(-9.000000, -9.000000)" id="Rectangle">
                                    <rect x="0" y="0" width="58" height="58"></rect>
                                </g>
                            </g>
                        </g>
                        <g transform="translate(34.000000, 0.000000)">
                            <circle id="Oval" fill="#222222" cx="11.5" cy="12.5" r="10.5"></circle>
                            <g id="Group-3" fill="#FF8E0C">
                                <path d="M7.8,10.8 C8.6283,10.8 9.3,10.1286 9.3,9.3 C9.3,8.4717 8.6283,7.8 7.8,7.8 C6.9717,7.8 6.3,8.4717 6.3,9.3 C6.3,10.1286 6.9717,10.8 7.8,10.8 M16.2,10.8 C17.0286,10.8 17.7,10.1286 17.7,9.3 C17.7,8.4717 17.0286,7.8 16.2,7.8 C15.3714,7.8 14.7,8.4717 14.7,9.3 C14.7,10.1286 15.3714,10.8 16.2,10.8 M12,24 C18.6276,24 24,18.6273 24,12 C24,5.3727 18.6276,0 12,0 C5.3727,0 0,5.3727 0,12 C0,18.6273 5.3727,24 12,24 M11.9109,15.3 C14.1087,15.3 16.1379,16.3113 17.4669,18.0096 C17.7732,18.4011 18.339,18.4701 18.7305,18.1638 C19.1217,17.8575 19.191,17.2917 18.8844,16.9002 C17.2179,14.7705 14.6685,13.5 11.9109,13.5 C9.3687,13.5 6.9984,14.5788 5.331,16.4316 C4.9986,16.8009 5.0286,17.37 5.3979,17.7024 C5.7675,18.0351 6.3366,18.0051 6.669,17.6358 C7.9986,16.1583 9.8844,15.3 11.9109,15.3" id="Fill-1"></path>
                            </g>
                        </g>
                    </g>
                </g>
            </g>
        </g>
    </g>
</svg>