<svg xmlns="http://www.w3.org/2000/svg" xmlns:xlink="http://www.w3.org/1999/xlink" width="14" height="12" viewBox="0 0 14 12"><defs><clipPath id="b"><rect width="14" height="12"/></clipPath></defs><g id="a" clip-path="url(#b)"><path d="M-21.4,12a.5.5,0,0,1-.5-.5V5.063l-.554.554a.5.5,0,0,1-.707,0l-1.485-1.485a.5.5,0,0,1,0-.707c1.98-1.984,2.172-2.167,2.2-2.185A3.686,3.686,0,0,1-19.5,0h.6l1,0,1,0h.6a3.689,3.689,0,0,1,2.954,1.241c.027.018.213.2,2.2,2.183a.5.5,0,0,1,0,.707l-1.485,1.485a.5.5,0,0,1-.707,0l-.554-.554V11.5a.5.5,0,0,1-.5.5Z" transform="translate(24.9 0)" fill="#540617"/></g></svg>